<svg width="71" height="13" viewBox="0 0 71 13" fill="none" xmlns="http://www.w3.org/2000/svg">
<path d="M0.834 10.098C0.619333 10.098 0.451333 10.0373 0.33 9.916C0.208667 9.79467 0.148 9.622 0.148 9.398V0.76C0.148 0.526666 0.204 0.349333 0.316 0.228C0.437333 0.0973332 0.596 0.0319998 0.792 0.0319998C0.96 0.0319998 1.086 0.0646664 1.17 0.129999C1.26333 0.185999 1.37067 0.293333 1.492 0.451999L7.26 8.054H6.91V0.717999C6.91 0.503333 6.966 0.335333 7.078 0.213999C7.19933 0.0926663 7.36733 0.0319998 7.582 0.0319998C7.806 0.0319998 7.974 0.0926663 8.086 0.213999C8.198 0.335333 8.254 0.503333 8.254 0.717999V9.412C8.254 9.62667 8.198 9.79467 8.086 9.916C7.98333 10.0373 7.84333 10.098 7.666 10.098C7.498 10.098 7.358 10.0653 7.246 10C7.14333 9.93467 7.03133 9.82267 6.91 9.664L1.17 2.076H1.492V9.398C1.492 9.622 1.436 9.79467 1.324 9.916C1.212 10.0373 1.04867 10.098 0.834 10.098ZM13.6043 10.126C12.8576 10.126 12.2136 9.986 11.6723 9.706C11.1403 9.41667 10.725 9.01067 10.4263 8.488C10.137 7.956 9.9923 7.326 9.9923 6.598C9.9923 5.88867 10.137 5.268 10.4263 4.736C10.7156 4.204 11.1123 3.78867 11.6163 3.49C12.1203 3.19133 12.6943 3.042 13.3383 3.042C13.8143 3.042 14.239 3.12133 14.6123 3.28C14.9856 3.42933 15.303 3.65333 15.5643 3.952C15.835 4.24133 16.0356 4.596 16.1663 5.016C16.3063 5.436 16.3763 5.90733 16.3763 6.43C16.3763 6.58867 16.3296 6.71 16.2363 6.794C16.143 6.86867 16.003 6.906 15.8163 6.906H11.1123V6.038H15.4243L15.1863 6.234C15.1863 5.76733 15.1163 5.37067 14.9763 5.044C14.8456 4.71733 14.645 4.47 14.3743 4.302C14.113 4.12467 13.7863 4.036 13.3943 4.036C12.9556 4.036 12.5823 4.13867 12.2743 4.344C11.9756 4.54933 11.747 4.834 11.5883 5.198C11.4296 5.562 11.3503 5.98667 11.3503 6.472V6.556C11.3503 7.37733 11.5416 7.998 11.9243 8.418C12.3163 8.82867 12.881 9.034 13.6183 9.034C13.8983 9.034 14.1923 8.99667 14.5003 8.922C14.8176 8.84733 15.1163 8.72133 15.3963 8.544C15.555 8.45067 15.695 8.40867 15.8163 8.418C15.947 8.42733 16.0496 8.46933 16.1243 8.544C16.2083 8.61867 16.2596 8.712 16.2783 8.824C16.297 8.936 16.2783 9.05267 16.2223 9.174C16.1663 9.286 16.0683 9.38867 15.9283 9.482C15.611 9.69667 15.2423 9.86 14.8223 9.972C14.4023 10.0747 13.9963 10.126 13.6043 10.126ZM21.1238 10.126C20.3772 10.126 19.7332 9.986 19.1918 9.706C18.6598 9.41667 18.2445 9.01067 17.9458 8.488C17.6565 7.956 17.5118 7.326 17.5118 6.598C17.5118 5.88867 17.6565 5.268 17.9458 4.736C18.2352 4.204 18.6318 3.78867 19.1358 3.49C19.6398 3.19133 20.2138 3.042 20.8578 3.042C21.3338 3.042 21.7585 3.12133 22.1318 3.28C22.5052 3.42933 22.8225 3.65333 23.0838 3.952C23.3545 4.24133 23.5552 4.596 23.6858 5.016C23.8258 5.436 23.8958 5.90733 23.8958 6.43C23.8958 6.58867 23.8492 6.71 23.7558 6.794C23.6625 6.86867 23.5225 6.906 23.3358 6.906H18.6318V6.038H22.9438L22.7058 6.234C22.7058 5.76733 22.6358 5.37067 22.4958 5.044C22.3652 4.71733 22.1645 4.47 21.8938 4.302C21.6325 4.12467 21.3058 4.036 20.9138 4.036C20.4752 4.036 20.1018 4.13867 19.7938 4.344C19.4952 4.54933 19.2665 4.834 19.1078 5.198C18.9492 5.562 18.8698 5.98667 18.8698 6.472V6.556C18.8698 7.37733 19.0612 7.998 19.4438 8.418C19.8358 8.82867 20.4005 9.034 21.1378 9.034C21.4178 9.034 21.7118 8.99667 22.0198 8.922C22.3372 8.84733 22.6358 8.72133 22.9158 8.544C23.0745 8.45067 23.2145 8.40867 23.3358 8.418C23.4665 8.42733 23.5692 8.46933 23.6438 8.544C23.7278 8.61867 23.7792 8.712 23.7978 8.824C23.8165 8.936 23.7978 9.05267 23.7418 9.174C23.6858 9.286 23.5878 9.38867 23.4478 9.482C23.1305 9.69667 22.7618 9.86 22.3418 9.972C21.9218 10.0747 21.5158 10.126 21.1238 10.126ZM28.0414 10.126C27.444 10.126 26.9167 9.986 26.4594 9.706C26.0114 9.41667 25.6614 9.006 25.4094 8.474C25.1574 7.93267 25.0314 7.30267 25.0314 6.584C25.0314 5.84667 25.1574 5.21667 25.4094 4.694C25.6614 4.17133 26.0114 3.76533 26.4594 3.476C26.9167 3.18667 27.444 3.042 28.0414 3.042C28.6387 3.042 29.152 3.19133 29.5814 3.49C30.02 3.77933 30.314 4.17133 30.4634 4.666H30.3094V0.746C30.3094 0.512666 30.37 0.335333 30.4914 0.213999C30.6127 0.0926663 30.7854 0.0319998 31.0094 0.0319998C31.2334 0.0319998 31.406 0.0926663 31.5274 0.213999C31.658 0.335333 31.7234 0.512666 31.7234 0.746V9.384C31.7234 9.608 31.6627 9.78533 31.5414 9.916C31.42 10.0373 31.2474 10.098 31.0234 10.098C30.7994 10.098 30.6267 10.0373 30.5054 9.916C30.384 9.78533 30.3234 9.608 30.3234 9.384V8.152L30.4774 8.46C30.328 8.964 30.034 9.37 29.5954 9.678C29.166 9.97667 28.648 10.126 28.0414 10.126ZM28.4054 9.034C28.788 9.034 29.124 8.94067 29.4134 8.754C29.7027 8.56733 29.9267 8.292 30.0854 7.928C30.2534 7.564 30.3374 7.116 30.3374 6.584C30.3374 5.78133 30.16 5.17467 29.8054 4.764C29.4507 4.35333 28.984 4.148 28.4054 4.148C28.0134 4.148 27.6727 4.24133 27.3834 4.428C27.094 4.60533 26.8654 4.876 26.6974 5.24C26.5387 5.604 26.4594 6.052 26.4594 6.584C26.4594 7.37733 26.6367 7.984 26.9914 8.404C27.346 8.824 27.8174 9.034 28.4054 9.034ZM38.1003 10.098C37.8763 10.098 37.7036 10.0373 37.5823 9.916C37.4609 9.78533 37.4003 9.608 37.4003 9.384V0.746C37.4003 0.512666 37.4609 0.335333 37.5823 0.213999C37.7036 0.0926663 37.8763 0.0319998 38.1003 0.0319998C38.3243 0.0319998 38.4969 0.0926663 38.6183 0.213999C38.7489 0.335333 38.8143 0.512666 38.8143 0.746V4.624H38.6183C38.8236 4.10133 39.1456 3.70933 39.5843 3.448C40.0229 3.17733 40.5269 3.042 41.0963 3.042C41.6376 3.042 42.0856 3.14467 42.4403 3.35C42.8043 3.546 43.0749 3.84933 43.2523 4.26C43.4296 4.66133 43.5183 5.17 43.5183 5.786V9.384C43.5183 9.608 43.4576 9.78533 43.3363 9.916C43.2149 10.0373 43.0423 10.098 42.8183 10.098C42.5849 10.098 42.4076 10.0373 42.2863 9.916C42.1649 9.78533 42.1043 9.608 42.1043 9.384V5.87C42.1043 5.282 41.9876 4.85267 41.7543 4.582C41.5303 4.31133 41.1756 4.176 40.6903 4.176C40.1209 4.176 39.6636 4.35333 39.3183 4.708C38.9823 5.06267 38.8143 5.53867 38.8143 6.136V9.384C38.8143 9.86 38.5763 10.098 38.1003 10.098ZM48.6727 10.126C47.926 10.126 47.282 9.986 46.7407 9.706C46.2087 9.41667 45.7933 9.01067 45.4947 8.488C45.2053 7.956 45.0607 7.326 45.0607 6.598C45.0607 5.88867 45.2053 5.268 45.4947 4.736C45.784 4.204 46.1807 3.78867 46.6847 3.49C47.1887 3.19133 47.7627 3.042 48.4067 3.042C48.8827 3.042 49.3073 3.12133 49.6807 3.28C50.054 3.42933 50.3713 3.65333 50.6327 3.952C50.9033 4.24133 51.104 4.596 51.2347 5.016C51.3747 5.436 51.4447 5.90733 51.4447 6.43C51.4447 6.58867 51.398 6.71 51.3047 6.794C51.2113 6.86867 51.0713 6.906 50.8847 6.906H46.1807V6.038H50.4927L50.2547 6.234C50.2547 5.76733 50.1847 5.37067 50.0447 5.044C49.914 4.71733 49.7133 4.47 49.4427 4.302C49.1813 4.12467 48.8547 4.036 48.4627 4.036C48.024 4.036 47.6507 4.13867 47.3427 4.344C47.044 4.54933 46.8153 4.834 46.6567 5.198C46.498 5.562 46.4187 5.98667 46.4187 6.472V6.556C46.4187 7.37733 46.61 7.998 46.9927 8.418C47.3847 8.82867 47.9493 9.034 48.6867 9.034C48.9667 9.034 49.2607 8.99667 49.5687 8.922C49.886 8.84733 50.1847 8.72133 50.4647 8.544C50.6233 8.45067 50.7633 8.40867 50.8847 8.418C51.0153 8.42733 51.118 8.46933 51.1927 8.544C51.2767 8.61867 51.328 8.712 51.3467 8.824C51.3653 8.936 51.3467 9.05267 51.2907 9.174C51.2347 9.286 51.1367 9.38867 50.9967 9.482C50.6793 9.69667 50.3107 9.86 49.8907 9.972C49.4707 10.0747 49.0647 10.126 48.6727 10.126ZM55.1842 10.126C54.4562 10.126 53.9055 9.916 53.5322 9.496C53.1682 9.06667 52.9862 8.45067 52.9862 7.648V0.746C52.9862 0.512666 53.0469 0.335333 53.1682 0.213999C53.2895 0.0926663 53.4622 0.0319998 53.6862 0.0319998C53.9102 0.0319998 54.0829 0.0926663 54.2042 0.213999C54.3349 0.335333 54.4002 0.512666 54.4002 0.746V7.564C54.4002 8.03067 54.4935 8.38067 54.6802 8.614C54.8762 8.838 55.1562 8.95 55.5202 8.95C55.6042 8.95 55.6789 8.95 55.7442 8.95C55.8095 8.94067 55.8749 8.93133 55.9402 8.922C56.0522 8.91267 56.1315 8.94533 56.1782 9.02C56.2249 9.08533 56.2482 9.22533 56.2482 9.44C56.2482 9.636 56.2062 9.79 56.1222 9.902C56.0382 10.0047 55.9029 10.07 55.7162 10.098C55.6322 10.1073 55.5435 10.112 55.4502 10.112C55.3569 10.1213 55.2682 10.126 55.1842 10.126ZM57.9655 12.618C57.7415 12.618 57.5688 12.5573 57.4475 12.436C57.3262 12.3147 57.2655 12.1373 57.2655 11.904V3.784C57.2655 3.55067 57.3262 3.37333 57.4475 3.252C57.5688 3.13067 57.7368 3.07 57.9515 3.07C58.1755 3.07 58.3482 3.13067 58.4695 3.252C58.5908 3.37333 58.6515 3.55067 58.6515 3.784V5.002L58.4975 4.708C58.6468 4.204 58.9408 3.80267 59.3795 3.504C59.8182 3.196 60.3362 3.042 60.9335 3.042C61.5402 3.042 62.0675 3.18667 62.5155 3.476C62.9728 3.76533 63.3228 4.17133 63.5655 4.694C63.8175 5.21667 63.9435 5.84667 63.9435 6.584C63.9435 7.30267 63.8175 7.93267 63.5655 8.474C63.3228 9.006 62.9775 9.41667 62.5295 9.706C62.0815 9.986 61.5495 10.126 60.9335 10.126C60.3455 10.126 59.8322 9.97667 59.3935 9.678C58.9548 9.37933 58.6608 8.98267 58.5115 8.488H58.6795V11.904C58.6795 12.1373 58.6142 12.3147 58.4835 12.436C58.3622 12.5573 58.1895 12.618 57.9655 12.618ZM60.5835 9.034C60.9755 9.034 61.3162 8.94067 61.6055 8.754C61.8948 8.56733 62.1188 8.292 62.2775 7.928C62.4362 7.564 62.5155 7.116 62.5155 6.584C62.5155 5.78133 62.3382 5.17467 61.9835 4.764C61.6382 4.35333 61.1715 4.148 60.5835 4.148C60.2008 4.148 59.8602 4.24133 59.5615 4.428C59.2722 4.60533 59.0482 4.876 58.8895 5.24C58.7308 5.604 58.6515 6.052 58.6515 6.584C58.6515 7.37733 58.8288 7.984 59.1835 8.404C59.5382 8.824 60.0048 9.034 60.5835 9.034ZM67.2659 7.326C67.1259 7.326 67.0139 7.27933 66.9299 7.186C66.8459 7.08333 66.8039 6.95267 66.8039 6.794C66.8039 6.486 66.8412 6.19667 66.9159 5.926C66.9905 5.646 67.1119 5.366 67.2799 5.086C67.4479 4.806 67.6719 4.50733 67.9519 4.19C68.1759 3.938 68.3485 3.714 68.4699 3.518C68.6005 3.322 68.6939 3.13533 68.7499 2.958C68.8059 2.77133 68.8339 2.58 68.8339 2.384C68.8339 2.02933 68.7079 1.74933 68.4559 1.544C68.2039 1.33867 67.8492 1.236 67.3919 1.236C66.9905 1.236 66.6219 1.29667 66.2859 1.418C65.9499 1.53 65.6232 1.69333 65.3059 1.908C65.1285 2.02 64.9699 2.07133 64.8299 2.062C64.6992 2.05267 64.5872 2.01067 64.4939 1.936C64.4099 1.852 64.3539 1.74933 64.3259 1.628C64.3072 1.49733 64.3259 1.36667 64.3819 1.236C64.4472 1.096 64.5592 0.969999 64.7179 0.857999C65.0912 0.587333 65.5252 0.377333 66.0199 0.228C66.5145 0.0786662 66.9999 0.00399935 67.4759 0.00399935C68.0359 0.00399935 68.5259 0.0973329 68.9459 0.284C69.3659 0.470666 69.6925 0.732 69.9259 1.068C70.1592 1.404 70.2759 1.80067 70.2759 2.258C70.2759 2.54733 70.2339 2.82267 70.1499 3.084C70.0659 3.34533 69.9305 3.61133 69.7439 3.882C69.5665 4.14333 69.3145 4.43267 68.9879 4.75C68.6985 5.03933 68.4652 5.30533 68.2879 5.548C68.1105 5.78133 67.9799 6.01 67.8959 6.234C67.8212 6.44867 67.7699 6.67733 67.7419 6.92C67.7325 7.04133 67.6859 7.13933 67.6019 7.214C67.5179 7.28867 67.4059 7.326 67.2659 7.326ZM67.2519 10.056C66.9812 10.056 66.7619 9.972 66.5939 9.804C66.4259 9.636 66.3419 9.42133 66.3419 9.16C66.3419 8.89867 66.4259 8.68867 66.5939 8.53C66.7619 8.362 66.9812 8.278 67.2519 8.278C67.5319 8.278 67.7465 8.362 67.8959 8.53C68.0545 8.68867 68.1339 8.89867 68.1339 9.16C68.1339 9.42133 68.0545 9.636 67.8959 9.804C67.7465 9.972 67.5319 10.056 67.2519 10.056Z" fill="url(#paint0_linear_1_2999)"/>
<defs>
<linearGradient id="paint0_linear_1_2999" x1="9.97561" y1="-4.99999" x2="47.2084" y2="11.1443" gradientUnits="userSpaceOnUse">
<stop stop-color="#247B7B"/>
<stop offset="1" stop-color="#3B247B"/>
</linearGradient>
</defs>
</svg>
