<svg width="102" height="23" viewBox="0 0 102 23" fill="none" xmlns="http://www.w3.org/2000/svg">
<path d="M10.592 0.559999C12.5547 0.559999 14.2827 0.869333 15.776 1.488C17.2907 2.08533 18.6027 2.97067 19.712 4.144L17.056 7.696C16.1387 6.736 15.1467 6.02133 14.08 5.552C13.0347 5.06133 11.84 4.816 10.496 4.816C9.70667 4.816 9.06667 4.90133 8.576 5.072C8.08533 5.24267 7.73333 5.47733 7.52 5.776C7.30667 6.07467 7.2 6.416 7.2 6.8C7.2 7.248 7.40267 7.632 7.808 7.952C8.23467 8.25067 8.91733 8.50667 9.856 8.72L13.408 9.52C15.52 10.0107 17.0667 10.7253 18.048 11.664C19.0293 12.6027 19.52 13.8507 19.52 15.408C19.52 16.9013 19.136 18.1707 18.368 19.216C17.6 20.24 16.544 21.0187 15.2 21.552C13.856 22.064 12.32 22.32 10.592 22.32C9.184 22.32 7.84 22.1707 6.56 21.872C5.28 21.552 4.128 21.104 3.104 20.528C2.08 19.952 1.216 19.2907 0.512 18.544L3.168 14.864C3.70133 15.4827 4.352 16.0373 5.12 16.528C5.90933 16.9973 6.76267 17.3707 7.68 17.648C8.61867 17.9253 9.568 18.064 10.528 18.064C11.2747 18.064 11.8933 17.9893 12.384 17.84C12.896 17.6907 13.2693 17.4667 13.504 17.168C13.7387 16.8693 13.856 16.5173 13.856 16.112C13.856 15.664 13.696 15.2907 13.376 14.992C13.056 14.672 12.448 14.4053 11.552 14.192L7.648 13.328C6.45333 13.0507 5.38667 12.688 4.448 12.24C3.53067 11.7707 2.80533 11.152 2.272 10.384C1.73867 9.59467 1.472 8.61333 1.472 7.44C1.472 6.11733 1.83467 4.944 2.56 3.92C3.28533 2.87467 4.33067 2.05333 5.696 1.456C7.06133 0.858666 8.69333 0.559999 10.592 0.559999ZM30.161 5.68C31.7823 5.68 33.1263 5.91467 34.193 6.384C35.281 6.832 36.1237 7.44 36.721 8.208C37.3397 8.95467 37.7237 9.76533 37.873 10.64L32.849 12.304C32.6997 11.3867 32.4223 10.704 32.017 10.256C31.633 9.78667 31.0677 9.552 30.321 9.552C29.6383 9.552 29.0623 9.712 28.593 10.032C28.145 10.3307 27.8037 10.8213 27.569 11.504C27.3343 12.1653 27.217 13.0187 27.217 14.064C27.217 15.1093 27.345 15.9627 27.601 16.624C27.857 17.264 28.2197 17.7333 28.689 18.032C29.1583 18.3093 29.713 18.448 30.353 18.448C30.8863 18.448 31.3237 18.352 31.665 18.16C32.0277 17.9467 32.3263 17.648 32.561 17.264C32.7957 16.88 32.945 16.4107 33.009 15.856L37.905 17.424C37.7557 18.3627 37.3503 19.2053 36.689 19.952C36.049 20.6773 35.1957 21.2533 34.129 21.68C33.0623 22.1067 31.8143 22.32 30.385 22.32C28.6357 22.32 27.1103 22 25.809 21.36C24.5077 20.6987 23.505 19.7493 22.801 18.512C22.097 17.2533 21.745 15.7493 21.745 14C21.745 12.2507 22.097 10.7573 22.801 9.52C23.505 8.26133 24.4863 7.312 25.745 6.672C27.025 6.01067 28.497 5.68 30.161 5.68ZM40.7333 22V6H45.5333L45.7573 9.456C46.1626 8.26133 46.7599 7.33333 47.5493 6.672C48.3599 6.01067 49.3839 5.68 50.6213 5.68C51.0266 5.68 51.3679 5.712 51.6453 5.776C51.9439 5.84 52.1786 5.92533 52.3493 6.032L51.8053 10.512C51.5919 10.4267 51.3146 10.3627 50.9733 10.32C50.6533 10.256 50.2586 10.224 49.7893 10.224C49.1493 10.224 48.5519 10.3627 47.9973 10.64C47.4426 10.9173 46.9946 11.3333 46.6533 11.888C46.3333 12.4213 46.1733 13.104 46.1733 13.936V22H40.7333ZM59.8913 22.32C58.8033 22.32 57.8433 22.1387 57.0113 21.776C56.2006 21.392 55.5606 20.784 55.0913 19.952C54.6219 19.12 54.3873 18.032 54.3873 16.688V6H59.8273V15.408C59.8273 16.432 60.0299 17.1467 60.4353 17.552C60.8406 17.9573 61.4166 18.16 62.1633 18.16C62.5473 18.16 62.9099 18.096 63.2513 17.968C63.5926 17.8187 63.8913 17.6053 64.1473 17.328C64.4033 17.0293 64.5953 16.656 64.7233 16.208C64.8726 15.7387 64.9473 15.1947 64.9473 14.576V6H70.3873V22H65.5233L65.3633 18.992C64.8513 20.1227 64.1366 20.9653 63.2193 21.52C62.3019 22.0533 61.1926 22.32 59.8913 22.32ZM80.9838 0.911999V16.304C80.9838 17.072 81.1651 17.6267 81.5278 17.968C81.9118 18.288 82.4344 18.448 83.0958 18.448C83.6078 18.448 84.0451 18.3947 84.4078 18.288C84.7918 18.16 85.1331 17.9787 85.4318 17.744L86.0078 21.104C85.4744 21.488 84.8024 21.7867 83.9918 22C83.1811 22.2133 82.3491 22.32 81.4958 22.32C80.2798 22.32 79.2238 22.1493 78.3278 21.808C77.4531 21.4667 76.7704 20.9227 76.2798 20.176C75.8104 19.4293 75.5651 18.4373 75.5438 17.2V2.416L80.9838 0.911999ZM85.7518 6V9.872H72.7918V6H85.7518ZM87.4325 22V18.672L93.8005 11.44L95.4965 9.744L92.9685 9.808H87.4965V6H101.513V9.328L95.2405 16.496L93.4805 18.256L96.2965 18.192H101.801V22H87.4325Z" fill="url(#paint0_linear_1_2992)"/>
<defs>
<linearGradient id="paint0_linear_1_2992" x1="3.02941" y1="-5" x2="96.3342" y2="42.9663" gradientUnits="userSpaceOnUse">
<stop stop-color="#247B7B"/>
<stop offset="1" stop-color="#3B247B"/>
</linearGradient>
</defs>
</svg>
